<svg version="1.1" id="block1" xmlns="http://www.w3.org/2000/svg" xmlns:xlink="http://www.w3.org/1999/xlink" x="0px" y="0px"
	 width="47.832px" height="49.826px" viewBox="0 0 47.832 49.826" enable-background="new 0 0 47.832 49.826" xml:space="preserve">
<g>
	<g>
		<path fill="#856738" d="M22.587,35.579c3.646,0.292,7.284,0.83,10.606,0.836c3.35,0.006,6.945-0.099,9.498,2.454
			c1.625,1.773-0.059,5.243-0.7,7.093c-0.354,1.018-1.438,3.083-2.526,3.513c-1.334,0.525-2.469-0.777-3.776-0.772
			c-0.674,0.003-1.112,0.668-1.74,0.797c-0.832,0.171-1.241-0.544-2.038-0.521c-0.696,0.02-1.327,0.58-2.025,0.683
			c-1.588,0.232-1.86-1.041-3.146-1.116c-0.986-0.058-1.778,1.231-2.866,1.157c-0.817-0.055-1.268-0.938-2.016-0.999
			c-2-0.166-1.833,0.667-3.666,1c-1,0.167-2.333-0.666-3.667-0.5c-1.667,0.167-2.833,1.5-4-0.332
			c0.388,0.609-2.591,0.123-2.842-0.002c-1.269-0.634-1.795-1.617-2.258-2.947c-0.559-1.606-1.061-3.688-0.705-5.445
			c0.474-2.34,1.976-2.573,3.916-3.31C13.213,35.428,17.721,35.191,22.587,35.579z"/>
	</g>
	<g>
		<path fill="#6BB745" d="M9.07,44.238c-0.755-0.396-1.149,0.227-2.387,0.992c-0.6-0.693-0.715-1.627-0.681-2.512
			c-1.01,0.492-1.983,0.934-3.025,1.344c-0.151,0.061-1.757,0.793-1.759,0.832c0.091-1.639,0.155-3.072,0.807-4.635
			c0.206-0.494,1.774-3.914,2.318-3.873c-1.012-0.078-1.982-0.109-2.798,0.564c0.232-1.084,0.593-2.148,1.206-3.09
			c0.444-0.682,1.596-1.467,1.608-2.34c0.033-2.195-4.344-1.445-4.311-0.826c-0.141-2.641,0.724-5.406,2.674-7.289
			c1.146-1.105,1.48-1.08,0.453-2.582C2.598,19.979,1.197,18.271,0,18.349c0.379-0.024,2.298-2.343,2.573-2.747
			c0.815-1.193,0.993-2.638,2.196-3.579c-1.203,0.055-2.88-1.639-3.832-2.28c0.624,0.42,3.658-1.863,4.672-1.83
			C5.272,7.25,3.204,5.387,3.434,4.584c0.391-1.369,4.24-0.846,5.315-0.9C8.515,3.422,8.326,2.811,8.047,2.526
			c1.573-0.509,3.497-0.579,5.109-0.2c1.246,0.294,2.575,1.555,3.875,0.871c0.791-0.415,1.484-1.844,1.531-2.693
			c0.835,0.234,2.098,1.525,2.909,1.407C21.913,1.848,23.473-0.034,23.52,0c1.688,1.23,3.386,4.278,5.585,4.07
			c0.834-0.079,2.289-1.6,3.251-1.915c1.207-0.397,2.563-0.563,3.795-0.296c-0.128,0.965-0.129,1.822,0.369,2.58
			c0.299,0.457,3.609-2.35,3.904-2.58c-0.161,3.386,0.868,2.966,3.401,4.7c0.397,0.272,2.738,2.609,2.917,2.498
			c-1.57,0.978-2.291,2.333-3.538,3.536c1.039-0.057,2.191,0.279,3.009,0.871c-1.733,1.01-3.155,1.377-1.874,3.146
			c1.25,1.728,2.388,2.375,2.77,4.667c-1.7,0.223-3.197,0.358-4.524,1.548c0.655,0.621,1.38,1.244,1.849,1.997
			c-0.335-0.538-0.757,1.282-0.746,1.411c0.066,0.795,0.913,1.42,1.422,1.936c1.063,1.074,2.774,2.234,2.723,3.967
			c-1.263-0.129-4.387,0.943-4.814,2.291c-0.328,1.031,1.825,2.984,2.62,4.209c-0.779,0.041-1.545,0.283-2.265,0.5
			c1.729-0.521,2.386,4.467,2.432,5.424c-0.005-0.104-4.478-1.619-4.754-1.721c0.05,0.977-0.529,1.896-1.158,2.555
			c0.139-0.74-1.02-2.125-1.403-2.803c0.451,0.799-2.146,3.932-3.009,4.111c-0.956,0.201-3.473-2.004-2.636-3.002
			c-0.181,0.217-2.272,2.082-2.313,2.023c-0.455-0.645-0.296-2.66-1.392-2.725c-1.211-0.07-4.83,3.307-5.322,4.332
			c-1.019-0.729-1.761-1.039-2.621-1.971c-0.155-0.17-1.302-1.721-1.505-1.684c-0.654,0.545-1.253,1.367-1.358,2.201
			c-1.078-0.307-1.258-1.311-1.807-2.115c-1.254,1.375-3.087,1.877-4.23,3.344c-1.007-0.477-1.619-1.404-2.381-2.18
			C9.573,44.582,9.305,44.361,9.07,44.238z"/>
	</g>
	<g>
		<path fill="#B7D672" d="M10.857,12.2c1.069,1.068,1.777,2.521,3.017,3.429c1.243,0.91,2.693,1.501,4.136,1.893
			c0.049,0.014-0.539-2.254-0.631-2.52c-0.264-0.758-0.599-1.122-1.325-1.529c-1.393-0.779-3.119-1.13-4.696-1.272"/>
	</g>
	<g>
		<path fill="#B7D672" d="M7.857,19.2c1.138,0.812,2.547,1.438,3.883,1.829c1.445,0.423,3.245,0.049,4.566-0.608
			c-0.485-0.763-2.662-1.376-3.583-1.507C11.154,18.691,9.4,18.856,7.857,19.2z"/>
	</g>
	<g>
		<path fill="#B7D672" d="M12.357,23.866c0.948,0.406,2.772,0.714,3.753,0.298c0.638-0.271,2.467-1.948,1.334-2.528
			c-0.809-0.414-2.033-0.038-2.787,0.339C14.333,22.138,12.329,23.854,12.357,23.866z"/>
	</g>
	<g>
		<path fill="#B7D672" d="M9.354,34.728c-0.251,0.307-0.499,0.604-0.728,0.877c0.564-0.055,1.128-0.455,1.663-0.656
			c1.444-0.543,2.877-0.513,4.293-0.907c1.403-0.393,2.795-1.376,3.709-2.493c0.97-1.186,2.277-2.792,2.642-4.303
			c-2.726,0.24-5.246,0.612-7.436,2.329c-1.358,1.064-2.179,2.658-3.234,4.016C9.977,33.959,9.664,34.35,9.354,34.728z"/>
	</g>
	<g>
		<path fill="#B7D672" d="M16.956,35.178c-1.333,1.256-1.855,3.767-2.342,5.496c0.085-0.301,1.086-0.903,1.344-1.137
			c0.476-0.433,0.937-0.882,1.424-1.302c0.894-0.771,2.52-1.477,2.433-2.897c-0.115-1.869-1.989-0.951-2.815-0.2
			C16.985,35.151,16.97,35.165,16.956,35.178z"/>
	</g>
	<g>
		<path fill="#B7D672" d="M24.916,42.655c0.669-1.592,1.169-3.296,1.226-5.032c0.034-1.027-0.295-1.725-0.616-2.643
			c-0.3-0.858-0.401-1.764-0.669-2.627c-0.207-0.666-0.564-1.339-0.564-2.059c0,0.851-0.308,1.744-0.576,2.546
			c-0.314,0.941-0.702,1.697-0.714,2.673c-0.026,2.082,0.744,3.981,1.107,6.012c0.153,0.854,0.252,1.659,0.007,2.488
			C24.438,43.627,24.704,43.16,24.916,42.655z"/>
	</g>
	<g>
		<path fill="#B7D672" d="M30.204,36.177c-0.103-0.685-0.233-1.357-0.67-1.85c-0.604-0.682-3.029-0.972-3.297-1.728
			c0.298,0.844,0.66,1.366,0.791,2.24c0.274,1.85,2.002,2.538,3.634,3.2C30.373,37.508,30.302,36.836,30.204,36.177z"/>
	</g>
	<g>
		<path fill="#B7D672" d="M19.857,5.866c0.493,0.123-0.002,4.538,0,5.017c0.005,1.002,0.034,1.833,0.576,2.684
			c0.454,0.712,1.349,2.258,2.346,1.478c1.287-1.007,0.538-3.049,0.061-4.279c-0.604-1.557-1.485-3.4-2.483-4.731"/>
	</g>
	<g>
		<path fill="#B7D672" d="M24.691,8.2c0.232,0.465-0.055,1.445-0.075,1.939c-0.028,0.713-0.008,1.42-0.009,2.135
			c0,0.676-0.302,2.221,0.519,2.582c2.277,1.002-0.168-6.268-0.269-6.823"/>
	</g>
	<g>
		<path fill="#B7D672" d="M31.024,14.033c0.789-2.104,1.412-4.343,3.297-5.829c-1.818,0.045-4.204,1.285-5.327,2.686
			c-0.742,0.926-1.243,1.992-1.293,3.193c-0.014,0.316,0.534,3.457,1.067,3.211C30.237,16.615,30.512,15.4,31.024,14.033z"/>
	</g>
	<g>
		<path fill="#B7D672" d="M29.949,18.853c0.039-0.118,2.764-0.614,3.074-0.645c1.237-0.12,3.393-0.024,4.312-1.003
			c-0.872,0.276-2.968-0.854-3.623-0.398c0.748-0.521,1.324-0.473,1.976-1.208c0.854-0.963,0.979-2.31,1.653-3.295
			c-0.418,0.61-1.15,0.922-1.81,1.224C32.885,14.742,30.889,15.999,29.949,18.853z"/>
	</g>
	<g>
		<path fill="#B7D672" d="M38.521,37.908c0.49,0.404,0.936,0.879,1.321,1.452c-0.183-0.646-0.296-1.25-0.414-1.921
			c-0.479-2.712-2.888-7.052-5.72-7.899c-0.669-0.2-2.807-0.14-3.245-0.666c0.572,0.687,0.913,1.535,1.451,2.207
			c0.461,0.577,1.009,1.026,1.348,1.719c-0.098-0.201-0.883-0.197-1.021-0.065c-0.231,0.221,0.011,0.758,0.093,1.027
			c0.275,0.903,0.69,1.541,1.615,1.883C35.603,36.256,37.22,36.834,38.521,37.908z"/>
	</g>
	<g>
		<path fill="#B7D672" d="M38.183,20.843c-1.743,0.839-3.925,1.357-4.897,2.298c0.293-0.283,0.377-1.406,0.669-1.837
			c0.423-0.624,1.029-1.114,1.72-1.413c1.72-0.744,3.814-0.271,5.003-2.191C40.761,19.242,39.621,20.151,38.183,20.843z"/>
	</g>
	<g>
		<path fill="#B7D672" d="M35.164,28.13c1.821,0.314,3.739,0.461,5.203,1.537c-1.261-1.178-1.656-3.093-2.795-4.4
			c-0.97-1.113-2.416-1.297-3.817-1.227c0.074,0.083,1.746,1.789,1.494,1.799c-0.591,0.021-1.103-0.202-1.701-0.117
			c-0.325,0.047-2.128,0.927-2.329,0.725C32.276,27.509,33.688,27.875,35.164,28.13z"/>
	</g>
	<g>
		<path fill="#B7D672" d="M18.534,15.37c0.239,0.118,0.479,2.016,0.71,2.386c0.57,0.91,1.261,1.074,2.268,1.014
			C21.675,17.028,19.84,16.019,18.534,15.37z"/>
	</g>
	<g>
		<path fill="#B7D672" d="M21.125,35.263c0.608-1.52,1.737-3.004,2.152-4.579c0.288-1.091-0.903-2.931-1.975-1.674
			C19.743,30.837,21.884,33.365,21.125,35.263z"/>
	</g>
	<g>
		<path fill="#B7D672" d="M21.874,25.145c0.893,0.059,0.825-0.361,0.895-1.104c0.125-1.317-0.413-2.871-2.041-2.849
			c-0.201,0.002-1.88,0.516-1.823,0.626c0.43,0.832,0.774,1.763,1.395,2.479c0.338,0.39,0.967,0.793,1.49,0.842
			C21.818,25.14,21.847,25.143,21.874,25.145z"/>
	</g>
	<g>
		<path fill="#B7D672" d="M24.606,18.514c0.164,0.549,0.636,1.033,0.976,1.601c-0.255-0.425,1.172-1.701,1.311-2.078
			c0.316-0.863-0.156-2.027-0.367-2.866c-0.318,0.95-1.363,1.425-1.807,2.295C24.52,17.854,24.511,18.194,24.606,18.514z"/>
	</g>
	<g>
		<path fill="#B7D672" d="M26.408,23.164c-0.091,0.722-0.096,1.466-0.154,2.102c0.872,0.011,1.714-0.378,2.601-0.4
			c0.546-0.013,1.09,0.131,1.588-0.167c1.237-0.737,1.605-3.279,1.736-4.574c0.101-0.992-4.25,0.285-4.633,0.585
			C26.8,21.292,26.529,22.209,26.408,23.164z"/>
	</g>
	<g>
		<path fill="#B7D672" d="M28.024,29.2c-0.987-0.396-1.706-1.228-2.66-1.665c0.022,0.011,0.07,2.961,0.468,3.431
			c0.86,1.016,2.396,1.032,3.599,0.976c0.038-0.863-0.964-1.71-1.156-2.576"/>
	</g>
	<g>
		<path fill="#B7D672" d="M8.458,29.874c0.785-0.136,1.56-1.552,1.965-2.146c1.481-2.173,4.135-2.561,6.595-2.262
			c-1.004,0.556-1.507,0.896-2.167,1.756c-0.474,0.617-1.197,1.017-1.888,1.342C11.554,29.228,9.989,29.609,8.458,29.874z"/>
	</g>
</g>
</svg>
<svg version="1.1" id="block2" xmlns="http://www.w3.org/2000/svg" xmlns:xlink="http://www.w3.org/1999/xlink" x="0px" y="0px"
	 width="50.102px" height="49.851px" viewBox="0 0 50.102 49.851" enable-background="new 0 0 50.102 49.851" xml:space="preserve">
<g>
	<g>
		<path fill="#856738" d="M23.997,35.604c3.646,0.292,7.285,0.83,10.607,0.836c3.35,0.006,6.945-0.099,9.498,2.454
			c1.625,1.773-0.059,5.243-0.701,7.093c-0.354,1.018-1.438,3.083-2.525,3.513c-1.334,0.525-2.469-0.777-3.777-0.772
			c-0.674,0.003-1.111,0.668-1.74,0.797c-0.832,0.171-1.24-0.544-2.037-0.521c-0.697,0.02-1.328,0.58-2.025,0.683
			c-1.588,0.232-1.861-1.041-3.146-1.116c-0.986-0.058-1.777,1.231-2.865,1.157c-0.817-0.055-1.269-0.938-2.017-0.999
			c-1.999-0.166-1.833,0.667-3.666,1c-1,0.167-2.333-0.666-3.667-0.5c-1.666,0.167-2.833,1.5-3.999-0.332
			c0.388,0.609-2.591,0.123-2.842-0.002c-1.27-0.634-1.795-1.617-2.258-2.947c-0.56-1.606-1.061-3.688-0.705-5.445
			c0.474-2.34,1.976-2.573,3.915-3.31C14.624,35.452,19.132,35.216,23.997,35.604z"/>
	</g>
	<g>
		<path fill="#6BB745" d="M6.236,12.357c-1.29,0.132-2.885-0.536-3.743-1.354c1.215-0.11,3.074-1.669,3.443-2.832
			c0.546-1.718-1.299-2.01-1.635-3.411c1.52-0.558,3.22-0.544,4.801-0.857c0.366-0.073,1.254-0.249,1.414-0.653
			c0.103-0.26-0.311-1.405-0.588-1.344c2.487-0.549,4.271-0.06,6.54,0.931c3.605,1.571,2.886-2.422,1.931-2.363
			c1.626-0.101,2.778,1.158,4.187,1.445c1.562,0.318,2.283-1.1,3.369-1.917c0.114-0.086,2.57,3.137,2.862,3.396
			c1.768,1.563,2.409-0.066,3.893-1.107c0.982-0.688,2.266-1.382,3.508-1.289c0.081,1.42,0.305,2.391,0.791,3.712
			c0.077,0.212,5.141-2.071,5.442-2.365c0.181,1.42-0.012,2.251,1.249,3.138c1.202,0.845,3.606,1.154,4.272,2.595
			c-0.938,0.485-2.301,1.919-2.634,2.933c-0.561,1.707,0.639,1.075,1.756,1.62c-0.197-0.097-1.883,2.921-1.628,3.432
			c0.282,0.564,1.478,1.102,1.955,1.557c0.639,0.608,1.179,1.279,1.555,2.083c-1.316,0.274-4.034,1.6-3.992,3.05
			c0.013,0.412,0.553,0.783,0.541,1.41c-0.011,0.651-0.542,1.318-0.451,1.988c0.107,0.791,0.581,1.216,1.181,1.688
			c1.181,0.931,3.105,1.332,3.847,2.749c-0.597-1.141-4.201,2.017-4.513,2.517c-1.478,2.379-0.025,3.01,1.635,4.596
			c0.047,0.045-2.07,0.8-2.294,0.826c1.025,1.414,2.712,3.587,2.781,5.442c-1.441-0.828-3.529-1.056-5.212-0.969
			c-0.23,0.897,0.271,1.7-0.29,2.667c-0.568-0.968-0.678-1.983-2.035-1.677c-1.239,0.279-1.785,1.812-2.574,2.583
			c-1.008-0.652-1.936-1.354-2.742-2.253c-1.033-1.152-2.125,0.536-3.449,1.051c0.551-2.419-0.977-2.685-2.891-1.842
			c-0.505,0.223-5.146,3.691-4.878,3.942c-0.919-0.859-1.211-2.853-2.277-3.415c-1.142-0.603-2.6,0.778-3.126,1.692
			c-0.492-0.435-0.442-1.114-0.625-1.732c-0.522,1.271-5.083,2.177-4.981,3.455c-0.08-0.908-1.544-3.131-2.396-3.404
			c-0.899-0.289-2.909,0.693-3.128,1.629c-0.052-0.939,0.058-1.88,0.095-2.807c-0.898-0.197-1.988,0.467-2.859,0.742
			c-0.291,0.092-2.696,0.412-2.72,0.449c1.001-1.602,1.226-3.553,2.165-5.182c0.741-1.285,2.345-2.359,0.198-3.032
			c-0.377-0.119-1.737-0.626-2.077-0.38c0.611-0.442,1.183-0.927,1.677-1.504c0.432-0.502,1.484-1.759,1.717-2.278
			c0.332-0.744,0.282-1.011-0.7-1.526C4.025,29.877,0.469,28.598,0,29.207c1.22-1.586,1.995-3.45,3.366-4.933
			c1.602-1.732,1.889-2.244,0.633-4.377c-0.622-1.057-1.683-2.855-3.094-2.908c0.965-0.925,1.938-1.776,3.003-2.579
			c0.471-0.354,0.717-0.419,1.114-0.844c0.284-0.303,0.633-1.496,1.157-1.52c-1.203,0.055-2.879-1.639-3.832-2.28
			c0.529,0.355,2.785-1.228,4.08-1.7"/>
	</g>
	<g>
		<path fill="#B7D672" d="M14.69,13.164c0.763,1.566,2.07,2.339,3.065,3.717c0.298,0.411,0.511,1.036,1.093,1.006
			c0.151-1.529-0.142-3.817-1.241-4.971c-0.905-0.949-2.775-1.751-4.05-1.937C14.135,11.437,14.372,12.511,14.69,13.164z"/>
	</g>
	<g>
		<path fill="#B7D672" d="M10.135,18.143c0.822,0.625,1.41,1.166,2.159,1.849c1.582,1.441,3.539,1.078,5.47,0.676
			c-0.199-1.08-2.276-1.651-3.18-1.979C13.386,18.252,11.421,18.146,10.135,18.143z"/>
	</g>
	<g>
		<path fill="#B7D672" d="M14.346,23.167c0.96,0.506,2.611,1.008,3.702,0.739c0.642-0.158,1.655-0.831,1.261-1.626
			c-0.369-0.742-1.926-0.715-2.55-0.449c-1.072,0.457-2.145,0.449-3.271,0.598C13.637,22.705,13.945,22.956,14.346,23.167z"/>
	</g>
	<g>
		<path fill="#B7D672" d="M10.604,33.526c0.251-0.013,0.479-0.024,0.632-0.049c1.733-0.276,3.523,0.053,5.243-0.334
			c1.497-0.337,2.665-1.252,3.638-2.412c0.482-0.575,0.952-1.258,1.267-1.941c0.096-0.207,0.567-2.401,0.464-2.366
			c-1.886,0.636-4.132,1.034-5.785,2.13c-1.896,1.256-3.631,2.739-5.367,4.203c-0.531,0.449-1.007,0.635-1.594,0.98
			C9.366,33.582,10.046,33.555,10.604,33.526z"/>
	</g>
	<g>
		<path fill="#B7D672" d="M18.305,35.14c-0.566,0.525-1.051,1.123-1.295,1.453c-0.48,0.648-1.192,2.833-2.131,2.898
			c0.874-0.062,1.817-0.546,2.663-0.815c1.347-0.429,4.681-2.334,3.482-4.076C20.354,33.626,19.222,34.288,18.305,35.14z"/>
	</g>
	<g>
		<path fill="#B7D672" d="M25.602,42.197c0.095-0.118,0.181-0.236,0.248-0.357c0.296-0.526,0.688-1.058,0.952-1.603
			c0.62-1.275,1.1-3.259,0.956-4.674c-0.184-1.819-0.992-3.503-1.317-5.294c0.121,1.039-0.348,2.005-0.684,2.964
			c-0.425,1.209-1.391,2.454-1.385,3.778c0.004,0.979,0.094,1.904,0.346,2.848c0.271,1.017,0.68,2.273,0.156,3.279
			C25.04,42.819,25.35,42.512,25.602,42.197z"/>
	</g>
	<g>
		<path fill="#B7D672" d="M31.745,36.214c0.008-0.079,0.01-0.141,0.004-0.179c-0.327-1.9-2.269-3.079-3.663-4.173
			c0.595,1.199,0.463,2.568,0.949,3.797c0.444,1.121,1.455,1.776,2.328,2.546C31.322,38.169,31.688,36.766,31.745,36.214z"/>
	</g>
	<g>
		<path fill="#B7D672" d="M24.19,15.068c1.866-1.462,0.23-6.35-0.975-7.815c-0.394-0.479-0.741-1.042-1.088-1.513
			c-0.067,0.662,0.104,1.311,0.007,2.01c-0.278,1.985-1.529,3.894-0.29,5.841C22.298,14.303,23.194,15.849,24.19,15.068z"/>
	</g>
	<g>
		<path fill="#B7D672" d="M26.537,14.881c1.612,0.71,0.875-4.243,0.679-4.921c-0.183-0.629-0.517-1.291-0.52-1.955
			C26.88,8.458,26.637,9.03,26.53,9.5C26.312,10.464,25.189,14.288,26.537,14.881z"/>
	</g>
	<g>
		<path fill="#B7D672" d="M32.391,14.041c0.106-0.282,0.222-0.562,0.36-0.833c0.712-1.392,1.674-3.417,3.085-4.212
			c-2.104,0.392-4.547,1.326-5.898,3.068c-0.708,0.912-0.898,1.846-0.694,2.964c0.049,0.264,0.449,2.514,0.936,2.29
			C31.61,16.658,31.902,15.333,32.391,14.041z"/>
	</g>
	<g>
		<path fill="#B7D672" d="M31.195,19.066c1.41-0.874,2.722-0.882,4.25-1.163c0.621-0.113,1.306-0.274,1.852-0.585
			c0.569-0.323,1.186-1.159,1.785-1.256c-0.496,0.363-1.54,0.194-2.133,0.152c1.155-0.962,1.232-1.919,2.002-3.078
			c-1.065,1.605-2.938,1.554-4.448,2.361c-1.264,0.677-2.72,1.931-2.975,3.485"/>
	</g>
	<g>
		<path fill="#B7D672" d="M39.401,38.295c0.251,0.485,0.477,0.985,0.917,1.331c-0.149-0.117,0.174-1.676,0.152-1.961
			c-0.05-0.654-0.219-1.306-0.359-1.948c-0.294-1.336-0.601-2.747-1.354-3.911c-0.896-1.385-2.167-1.73-3.584-2.39
			c-0.661-0.308-1.74-0.575-2.309-1.002c0.448,0.337,0.379,0.786,0.474,1.271c0.119,0.609,0.177,0.65,0.518,1.136
			c0.518,0.735,1.075,1.477,1.409,2.321c-0.42-0.172-0.887-0.482-1.313-0.555c0.079,0.014,0.325,1.635,0.408,1.835
			c0.232,0.562,0.594,1.04,1.177,1.276c1.133,0.46,2.151,0.876,3.131,1.618C39.001,37.569,39.21,37.925,39.401,38.295z"/>
	</g>
	<g>
		<path fill="#B7D672" d="M39.745,21.271c-0.093,0.04-0.181,0.077-0.264,0.113c-1.242,0.534-3.993,0.402-4.758,1.753
			c0.994-1.755,1.778-2.779,3.823-3.316c1.232-0.323,3.201,0.021,4.154-0.978C42.542,20.021,40.822,20.808,39.745,21.271z"/>
	</g>
	<g>
		<path fill="#B7D672" d="M36.547,28.215c-1.409-0.314-2.435-1.275-3.813-1.642c1.202,0.318,2.265-1.38,3.571-0.753
			c0.139-0.521-0.958-1.096-1.359-1.458c0.621,0.56,2.116,0.193,2.924,0.67c1.692,0.997,2.726,3.605,2.858,5.498
			C39.514,29.097,38.269,28.6,36.547,28.215z"/>
	</g>
	<g>
		<path fill="#B7D672" d="M20.691,15.275c0.205,1.267,0.239,3.724,1.646,3.521c1.981-0.284-1.554-3.535-1.778-4.059
			C20.614,14.866,20.655,15.053,20.691,15.275z"/>
	</g>
	<g>
		<path fill="#B7D672" d="M22.127,34.201c1.515-0.581,3.026-2.487,2.662-4.092c-0.431-1.896-2.248-0.615-2.434,0.701
			c-0.181,1.277,0.108,2.378-0.555,3.495C21.909,34.278,22.019,34.243,22.127,34.201z"/>
	</g>
	<g>
		<path fill="#B7D672" d="M23.283,25.189c0.891,0.036,1.269-1.304,1.071-2.019c-0.239-0.871-1.476-1.404-2.314-1.479
			c-1.164-0.104-1.671,1.312-2.655,1.293c1.481,0.027,2.104,1.628,3.415,2.102C22.979,25.151,23.139,25.184,23.283,25.189z"/>
	</g>
	<g>
		<path fill="#B7D672" d="M26.048,18.528c0.171,0.614,0.588,1.137,0.92,1.683c-0.045-0.956,1.042-1.397,0.929-2.542
			c-0.05-0.5-0.252-0.968-0.525-1.385c-0.118-0.181-1.006-0.937-1.001-1.05c-0.044,0.983-0.496,1.951-0.39,2.945
			C25.993,18.3,26.016,18.416,26.048,18.528z"/>
	</g>
	<g>
		<path fill="#B7D672" d="M27.493,23.08c-0.204,0.626-0.355,1.276-0.54,1.889c0.107-0.354,1.672-0.363,1.955-0.38
			c1.637-0.096,2.87-0.305,3.941-1.671c0.72-0.916,1.007-2.122,1.651-3.113c-0.799,1.188-2.711,0.499-3.875,0.615
			C28.914,20.59,28.015,21.478,27.493,23.08z"/>
	</g>
	<g>
		<path fill="#B7D672" d="M29.194,28.483c-0.638-0.339-1.228-0.8-1.824-1.156c0.362,1.083-0.354,2.55,0.304,3.52
			c0.662,0.979,2.099,0.755,3.004,1.295c-0.128-0.076-0.198-1.259-0.301-1.491c-0.193-0.443-0.579-0.753-0.692-1.261"/>
	</g>
	<g>
		<path fill="#B7D672" d="M9.879,28.566c-0.011,0-0.021,0-0.032,0c0.771-0.318,1.667-1.545,2.513-2.106
			c1.755-1.165,4.277-0.659,6.269-0.479c-1.751,0.142-2.248,1.714-3.728,2.38C13.337,29.066,11.519,28.573,9.879,28.566z"/>
	</g>
</g>
</svg>
<svg version="1.1" id="block3" xmlns="http://www.w3.org/2000/svg" xmlns:xlink="http://www.w3.org/1999/xlink" x="0px" y="0px"
	 width="49.978px" height="49.78px" viewBox="0 0 49.978 49.78" enable-background="new 0 0 49.978 49.78" xml:space="preserve">
<g>
	<g>
		<path fill="#856738" d="M24.134,35.533c3.646,0.292,7.285,0.83,10.607,0.836c3.35,0.006,6.945-0.099,9.498,2.454
			c1.625,1.773-0.059,5.243-0.701,7.093c-0.354,1.018-1.438,3.083-2.525,3.513c-1.334,0.525-2.469-0.777-3.777-0.772
			c-0.674,0.003-1.111,0.668-1.74,0.797c-0.832,0.171-1.24-0.544-2.037-0.521c-0.697,0.02-1.328,0.58-2.025,0.683
			c-1.588,0.232-1.861-1.041-3.146-1.116c-0.986-0.058-1.777,1.231-2.865,1.157c-0.817-0.055-1.269-0.938-2.017-0.999
			c-1.999-0.166-1.833,0.667-3.666,1c-1,0.167-2.333-0.666-3.667-0.5c-1.666,0.167-2.833,1.5-3.999-0.332
			c0.388,0.609-2.591,0.123-2.842-0.002c-1.27-0.634-1.795-1.617-2.258-2.947c-0.56-1.606-1.061-3.688-0.705-5.445
			c0.474-2.34,1.976-2.573,3.915-3.31C14.761,35.382,19.269,35.146,24.134,35.533z"/>
	</g>
	<g>
		<path fill="#6BB745" d="M6.373,12.287c-1.29,0.132-2.885-0.536-3.743-1.354c1.401-0.127,2.949-1.425,3.409-2.741
			c0.59-1.69-0.79-2.167-2.171-2.326C4.637,5.659,5.33,5.27,6.078,5.009C7.075,4.661,8.041,4.298,9.063,4.03
			c0.664-0.174,1.591-0.422,1.934-1.076c0.331-0.631,0.571-1.843-0.122-2.354c0.797-0.15,1.761,0.345,2.451,0.689
			c0.857,0.428,1.704,0.844,2.586,1.24c0.871,0.393,2.147,1.024,3.017,0.308c1.118-0.923-0.792-1.325-1.399-1.706
			c1.424-0.611,3.053,0.135,4.432,0.523c0.593,0.168,1.264,0.388,1.864,0.168c1.23-0.45,2.122-1.659,3.476-1.822
			c0.086,1.562-0.09,2.192,1.271,3.112c0.567,0.384,1.357,1.092,2.109,0.79c0.513-0.206,1.125-0.943,1.572-1.3
			c0.452-0.361,0.823-0.843,1.261-1.233c0.527-0.47,1.004-0.847,1.726-0.866c0.066,0.605,0.358,1.324,0.634,1.865
			c0.182,0.357,0.372,0.867,0.609,1.178c0.553,0.724,1.01,0.945,1.853,0.7c1.09-0.316,2.182-0.515,3.288-0.767
			c0.553-0.126,1.438-0.199,1.803-0.709c-0.182,0.255-0.266,1.283-0.247,1.604c0.089,1.545,2.57,1.394,3.63,1.759
			c0.517,0.178,1.094,0.325,1.433,0.734c-0.05-0.061-1.216,0.991-1.314,1.104c-0.454,0.518-0.768,1.162-1.047,1.787
			c-0.151,0.336-0.677,1.268-0.59,1.63c0.173,0.719,1.297,0.152,1.78,0.057c-0.31,0.868-0.791,1.639-1.025,2.527
			c-0.132,0.495-0.691,1.517-0.441,2.021c0.244,0.491,0.891,0.545,1.351,0.773c0.532,0.264,1.068,0.572,1.545,0.929
			c0.371,0.277,0.603,0.711,0.936,0.966c-0.188-0.145-1.617,0.933-1.811,1.081c-0.523,0.4-0.881,0.864-1.317,1.333
			c-0.703,0.754-2.022,1.826-0.251,2.302c-0.4,0.695-0.958,1.872-0.845,2.704c0.133,0.98,1.053,1.931,1.963,2.243
			c0.893,0.306,2.108,0.251,2.804,0.979c-0.269-0.281-1.696,1.487-1.903,1.768c-0.756,1.02-4.009,2.735-2.784,4.356
			c0.253,0.334,0.714,0.383,1.074,0.529c0.181,0.073,1.041,0.724,1.129,0.713c-0.674,0.084-2.274,0.871-2.312,1.676
			c-0.035,0.759,1.441,1.59,1.857,2.176c0.52,0.731,0.957,1.631,1.151,2.511c-0.873-0.312-1.807-0.238-2.716-0.225
			c-0.56,0.008-1.465-0.227-1.981,0.041c-0.62,0.32-0.727,1.929-0.319,2.456c-0.463-0.576-1.135-1.125-1.846-1.352
			c-0.556-0.178-1.003-0.087-1.135-0.81c-0.018,1.479-2.099,1.857-1.911,3.465c-1.034-0.967-2.249-1.7-3.479-2.385
			c-0.793-0.441-1.017-0.15-1.826,0.185c-0.192,0.079-2.036,0.561-2.018,0.687c-0.112-0.758,0.33-1.824-0.781-2.002
			c-0.964-0.153-1.792,0.816-2.521,1.279c-0.773,0.49-1.59,0.924-2.458,1.221c-0.472,0.161-2.652,0.766-2.322,1.568
			c-0.252-0.611-0.545-1.208-0.748-1.839c-0.121-0.379-0.155-0.908-0.447-1.211c-0.734-0.763-1.68,0.071-2.336,0.494
			c-0.334,0.215-2.164,0.665-2.083,1.243c-0.094-0.67,0.156-1.407,0.607-1.9c-0.945,1.154-2.19,1.396-3.587,1.627
			c-0.846,0.141-2.469,0.496-2.528,1.587c-0.522-0.95-0.548-2.929-1.767-3.247c-1.062-0.277-2.959,0.459-3.616,1.308
			c0.017-0.928,0.249-1.919,0.795-2.679c-0.559,0.502-1.682,0.597-2.405,0.501c-1.172-0.154-2.351-0.495-3.559-0.502
			c0.561-0.438,0.954-1.27,1.36-1.849c0.625-0.889,1.206-1.783,1.87-2.643c0.547-0.708,0.763-1.37,0.235-2.201
			c-0.172-0.271-2.198-1.868-2.414-1.625c0.791-0.894,3.868-2.154,3.064-3.635c-0.679-1.251-2.408-1.75-3.504-2.535
			C1.252,27.653,0.51,27.411,0,27.004c0.646,0.068,1.427-1.143,1.807-1.576c0.682-0.778,1.304-1.644,2.121-2.289
			c0.848-0.669,1.202-1.189,0.723-2.335c-0.287-0.686-0.568-1.45-0.916-2.094c-0.377-0.698-1.025-1.209-1.424-1.892
			c-0.365-0.627-0.802-1.32-1.261-1.701c1.562,0.354,3.081-0.521,4.109-1.621c0.964-1.027,0.099-1.253-0.82-1.567
			c-0.991-0.339-1.329-0.798-1.902-1.681c0.197,0.305,1.517,0.311,1.837,0.219C3.801,9.833,3.112,9.376,2.69,8.69
			c1.307-0.032,2.682-0.259,3.874-0.694"/>
	</g>
	<g>
		<path fill="#B7D672" d="M15.805,12.951c0.006,0.038,0.012,0.073,0.019,0.103c0.218,0.984,0.456,1.981,1.178,2.69
			c0.736,0.723,1.544,1.407,1.858,2.434c0.043-0.601,0.302-1.136,0.32-1.739c0.076-2.485-1.762-5.59-4.097-6.578
			C15.729,10.134,15.697,12.231,15.805,12.951z"/>
	</g>
	<g>
		<path fill="#B7D672" d="M11.523,16.62c0.359,0.548,0.732,1.116,0.99,1.699c0.28,0.637,0.495,0.95,1.05,1.364
			c0.313,0.234,0.587,0.579,0.933,0.747c0.579,0.281,1.028,0.203,1.594,0.237c0.729,0.044,1.979,0.819,1.742-0.385
			c-0.184-0.934-0.756-1.414-1.633-1.741c-0.938-0.349-1.763-0.698-2.714-0.948c-0.659-0.174-1.859-0.807-2.236-1.396
			C11.338,16.337,11.431,16.478,11.523,16.62z"/>
	</g>
	<g>
		<path fill="#B7D672" d="M14.835,22.624c0.779,0.554,1.645,0.909,2.676,0.936c0.584,0.015,1.144-0.137,1.611-0.486
			c0.276-0.205,0.861-1.177,1.124-1.197c-1.156,0.09-2.252-0.581-3.393-0.265c-0.965,0.268-2.146,1.022-3.038,0.146
			C14.143,22.079,14.479,22.372,14.835,22.624z"/>
	</g>
	<g>
		<path fill="#B7D672" d="M11.085,32.172c1.297,0.458,2.707,0.648,4.08,0.589c1.707-0.074,3.489-0.834,4.682-2.067
			c1.084-1.122,1.541-3.283,1.531-4.812c-0.261,0.354-0.514,0.683-0.887,0.938c-0.704,0.482-1.628,0.6-2.428,0.839
			c-0.975,0.292-1.934,0.797-2.751,1.399c-1.361,1.003-2.68,2.039-4.426,2.182c-0.521,0.043-1.03,0.073-1.557,0.062
			C9.889,31.672,10.477,31.957,11.085,32.172z"/>
	</g>
	<g>
		<path fill="#B7D672" d="M18.415,35.086c-0.19,0.097-0.375,0.212-0.549,0.355c-0.618,0.509-1.041,1.171-1.796,1.504
			c-0.396,0.175-1.392,0.55-1.801,0.29c1.014,0.645,2.404,0.535,3.55,0.571c1.05,0.033,2.098-0.521,2.938-1.102
			c0.854-0.59,0.991-1.577,0.915-2.589C20.646,34.622,19.43,34.574,18.415,35.086z"/>
	</g>
	<g>
		<path fill="#B7D672" d="M25.26,41.719c0.989-1.151,1.898-2.457,2.32-3.933c0.455-1.588,0.153-3.009,0.071-4.619
			c-0.05-0.975-0.574-1.86-0.592-2.85c0.005,0.831-0.084,1.273-0.483,2.001c-0.408,0.742-0.806,1.487-1.307,2.172
			c-0.629,0.861-0.845,2.026-0.96,3.063c-0.11,0.999,0.188,1.831,0.188,2.815c0,0.812,0.012,1.659-0.183,2.438
			C24.64,42.476,24.943,42.087,25.26,41.719z"/>
	</g>
	<g>
		<path fill="#B7D672" d="M31.337,36.167c-0.003-0.139-0.012-0.275-0.025-0.409c-0.168-1.64-1.165-2.859-2.486-3.75
			c0.651,1.184-0.069,2.734,0.508,3.935c0.29,0.604,0.757,1.102,1.089,1.679c0.214,0.372,0.406,0.726,0.753,0.977
			C31.23,37.825,31.358,36.968,31.337,36.167z"/>
	</g>
	<g>
		<path fill="#B7D672" d="M24.327,14.998c0.928-0.727,0.846-1.957,0.92-3.015c0.094-1.331-0.441-2.74-0.941-3.963
			c-0.276-0.676-1.18-1.862-1.184-2.572c0.005,0.91-0.149,1.482-0.452,2.34c-0.51,1.444-1.168,3.049-0.977,4.648
			C21.805,13.363,23.024,16.019,24.327,14.998z"/>
	</g>
	<g>
		<path fill="#B7D672" d="M26.674,14.811c1.551,0.683,1.089-5.891,0.556-6.751c-0.141,0.479-0.137,1.05-0.308,1.571
			C26.565,10.712,25.052,14.096,26.674,14.811z"/>
	</g>
	<g>
		<path fill="#B7D672" d="M32.501,13.982c0.059-0.193,0.114-0.384,0.169-0.57c0.475-1.599,1.383-2.884,2.997-3.53
			c-1.026-0.078-2.036,0.077-2.983,0.49c-0.773,0.337-1.7,0.786-2.295,1.384c-0.982,0.986-1.206,2.152-0.962,3.452
			c0.053,0.279,0.401,2.264,0.889,2.04C31.611,16.653,32.113,15.272,32.501,13.982z"/>
	</g>
	<g>
		<path fill="#B7D672" d="M31.332,18.996c0.697-0.433,1.151-0.966,2.003-1.023c0.83-0.057,1.699,0.197,2.52,0.021
			c1.096-0.236,2.005-0.482,2.87-1.178c-0.457,0.436-1.607,0.171-2.208,0.181c1.143-0.628,2.155-1.743,2.299-3.11
			c-0.681,1.056-1.589,1.353-2.758,1.717c-1.525,0.477-4.005,1.67-4.622,3.266"/>
	</g>
	<g>
		<path fill="#B7D672" d="M39.773,38.269c0.29-1.559,0.149-3.638-0.481-5.107c-0.622-1.451-1.483-2.83-2.843-3.693
			c-0.894-0.567-1.941-0.81-2.729-1.551c0.668,0.69,0.65,1.713,0.748,2.606c0.052,0.48,0.09,0.984,0.281,1.435
			c0.157,0.369,0.52,0.641,0.592,1.029c-0.166-0.099-1.057-0.607-1.021-0.851c-0.256,1.702,1.365,2.858,2.474,3.795
			c0.741,0.627,2.917,2.737,2.655,3.864C39.568,39.283,39.68,38.773,39.773,38.269z"/>
	</g>
	<g>
		<path fill="#B7D672" d="M39.993,21.671c-0.557,0.142-1.133,0.242-1.728,0.322c-1.146,0.153-2.065,0.746-3.25,0.69
			c0.668-0.315,1.133-1.105,1.696-1.576c0.708-0.593,1.448-1.022,2.393-1.082c1.143-0.072,3.246,0.562,4.251-0.09
			C42.347,20.851,41.219,21.359,39.993,21.671z"/>
	</g>
	<g>
		<path fill="#B7D672" d="M37.66,24.158c-0.686-0.314-1.59-0.479-2.031-0.969c0.253,0.28,0.368,0.661,0.569,0.991
			c0.195,0.32,1.271,1.228,0.498,1.577c-0.298,0.136-1.144-0.062-1.49-0.034c-0.308,0.025-1.547,0.446-1.756,0.332
			c0.906,0.497,1.647,1.325,2.649,1.613c1.907,0.549,2.922,1.735,4.243,3.111c-0.388-0.527-0.408-1.312-0.486-1.94
			c-0.2-1.598-0.347-3.368-1.757-4.429C37.971,24.314,37.821,24.232,37.66,24.158z"/>
	</g>
	<g>
		<path fill="#B7D672" d="M21.426,15.065c0.126,0.525-0.023,1.119-0.047,1.642c-0.055,1.155,0.54,2.474,1.734,2.889
			c0.112-2.076-0.825-3.23-1.842-4.911C21.345,14.806,21.394,14.934,21.426,15.065z"/>
	</g>
	<g>
		<path fill="#B7D672" d="M22.216,33.423c0.832-0.057,1.59-0.369,2.267-1.055c0.959-0.972,0.952-2.168,0.817-3.426
			c-1.125,0.186-2.304,0.822-2.979,1.754c-0.391,0.539-0.668,2.825-1.806,2.547C21.11,33.389,21.679,33.46,22.216,33.423z"/>
	</g>
	<g>
		<path fill="#B7D672" d="M23.423,25.134c0.566,0.106,1.021-0.162,1.565-0.275c0.504-0.104-0.628-1.966-0.761-2.169
			c-0.748-1.143-1.922-0.574-2.999-0.071c-0.489,0.229-0.988,0.877-1.525,0.874c0.675,0.003,1.485,0.206,2.061,0.563
			c0.516,0.32,0.938,0.888,1.549,1.053C23.35,25.118,23.387,25.127,23.423,25.134z"/>
	</g>
	<g>
		<path fill="#B7D672" d="M25.713,18.523c0.126,0.297,0.302,0.571,0.521,0.791c1.31,1.318,1.379-0.429,1.16-1.368
			c-0.265-1.139-1.203-2.096-2.027-2.87c0.334,0.84,0.157,1.457,0.132,2.341C25.487,17.784,25.564,18.17,25.713,18.523z"/>
	</g>
	<g>
		<path fill="#B7D672" d="M27.302,22.876c-0.171,0.392-0.373,0.751-0.69,0.867c1.497-0.045,2.959,0.823,4.392,0.344
			c1.082-0.362,2.133-1.117,2.812-2.032c0.362-0.488,0.646-0.924,1.165-1.26c-0.659,0.291-1.676-0.063-2.341-0.226
			c-0.895-0.219-2.005-0.3-2.907-0.105c-0.771,0.166-1.452,0.744-1.927,1.35C27.612,22.06,27.473,22.484,27.302,22.876z"/>
	</g>
	<g>
		<path fill="#B7D672" d="M28.304,26.578c0.323,0.408,0.08,1.269,0.024,1.728c-0.113,0.917-0.363,1.859,0.293,2.594
			c0.646,0.722,1.764,0.973,2.302,1.78c0.011-0.604,0.191-1.2,0.204-1.808C31.173,28.791,29.448,27.966,28.304,26.578z"/>
	</g>
	<g>
		<path fill="#B7D672" d="M10.598,27.396c-0.597-0.413-1.12-0.777-1.397-0.782c1.665,0.03,3.15-0.477,4.766-0.742
			c1.549-0.255,3.251-0.328,4.68,0.432c-0.626-0.061-1.924,1.252-2.457,1.629c-0.812,0.572-1.737,0.693-2.666,0.377
			C12.982,29.047,11.672,28.142,10.598,27.396z"/>
	</g>
</g>
</svg>
