<?xml version="1.0" encoding="utf-8"?>
<!-- Generator: Adobe Illustrator 16.0.0, SVG Export Plug-In . SVG Version: 6.00 Build 0)  -->
<!DOCTYPE svg PUBLIC "-//W3C//DTD SVG 1.1//EN" "http://www.w3.org/Graphics/SVG/1.1/DTD/svg11.dtd">
<svg version="1.1" id="Layer_1" xmlns="http://www.w3.org/2000/svg" xmlns:xlink="http://www.w3.org/1999/xlink" x="0px" y="0px"
	 width="47.832px" height="49.826px" viewBox="0 0 47.832 49.826" enable-background="new 0 0 47.832 49.826" xml:space="preserve">
<g>
	<g>
		<path fill="#856738" d="M22.587,35.579c3.646,0.292,7.284,0.83,10.606,0.836c3.35,0.006,6.945-0.099,9.498,2.454
			c1.625,1.773-0.059,5.243-0.7,7.093c-0.354,1.018-1.438,3.083-2.526,3.513c-1.334,0.525-2.469-0.777-3.776-0.772
			c-0.674,0.003-1.112,0.668-1.74,0.797c-0.832,0.171-1.241-0.544-2.038-0.521c-0.696,0.02-1.327,0.58-2.025,0.683
			c-1.588,0.232-1.86-1.041-3.146-1.116c-0.986-0.058-1.778,1.231-2.866,1.157c-0.817-0.055-1.268-0.938-2.016-0.999
			c-2-0.166-1.833,0.667-3.666,1c-1,0.167-2.333-0.666-3.667-0.5c-1.667,0.167-2.833,1.5-4-0.332
			c0.388,0.609-2.591,0.123-2.842-0.002c-1.269-0.634-1.795-1.617-2.258-2.947c-0.559-1.606-1.061-3.688-0.705-5.445
			c0.474-2.34,1.976-2.573,3.916-3.31C13.213,35.428,17.721,35.191,22.587,35.579z"/>
	</g>
	<g>
		<path fill="#6BB745" d="M9.07,44.238c-0.755-0.396-1.149,0.227-2.387,0.992c-0.6-0.693-0.715-1.627-0.681-2.512
			c-1.01,0.492-1.983,0.934-3.025,1.344c-0.151,0.061-1.757,0.793-1.759,0.832c0.091-1.639,0.155-3.072,0.807-4.635
			c0.206-0.494,1.774-3.914,2.318-3.873c-1.012-0.078-1.982-0.109-2.798,0.564c0.232-1.084,0.593-2.148,1.206-3.09
			c0.444-0.682,1.596-1.467,1.608-2.34c0.033-2.195-4.344-1.445-4.311-0.826c-0.141-2.641,0.724-5.406,2.674-7.289
			c1.146-1.105,1.48-1.08,0.453-2.582C2.598,19.979,1.197,18.271,0,18.349c0.379-0.024,2.298-2.343,2.573-2.747
			c0.815-1.193,0.993-2.638,2.196-3.579c-1.203,0.055-2.88-1.639-3.832-2.28c0.624,0.42,3.658-1.863,4.672-1.83
			C5.272,7.25,3.204,5.387,3.434,4.584c0.391-1.369,4.24-0.846,5.315-0.9C8.515,3.422,8.326,2.811,8.047,2.526
			c1.573-0.509,3.497-0.579,5.109-0.2c1.246,0.294,2.575,1.555,3.875,0.871c0.791-0.415,1.484-1.844,1.531-2.693
			c0.835,0.234,2.098,1.525,2.909,1.407C21.913,1.848,23.473-0.034,23.52,0c1.688,1.23,3.386,4.278,5.585,4.07
			c0.834-0.079,2.289-1.6,3.251-1.915c1.207-0.397,2.563-0.563,3.795-0.296c-0.128,0.965-0.129,1.822,0.369,2.58
			c0.299,0.457,3.609-2.35,3.904-2.58c-0.161,3.386,0.868,2.966,3.401,4.7c0.397,0.272,2.738,2.609,2.917,2.498
			c-1.57,0.978-2.291,2.333-3.538,3.536c1.039-0.057,2.191,0.279,3.009,0.871c-1.733,1.01-3.155,1.377-1.874,3.146
			c1.25,1.728,2.388,2.375,2.77,4.667c-1.7,0.223-3.197,0.358-4.524,1.548c0.655,0.621,1.38,1.244,1.849,1.997
			c-0.335-0.538-0.757,1.282-0.746,1.411c0.066,0.795,0.913,1.42,1.422,1.936c1.063,1.074,2.774,2.234,2.723,3.967
			c-1.263-0.129-4.387,0.943-4.814,2.291c-0.328,1.031,1.825,2.984,2.62,4.209c-0.779,0.041-1.545,0.283-2.265,0.5
			c1.729-0.521,2.386,4.467,2.432,5.424c-0.005-0.104-4.478-1.619-4.754-1.721c0.05,0.977-0.529,1.896-1.158,2.555
			c0.139-0.74-1.02-2.125-1.403-2.803c0.451,0.799-2.146,3.932-3.009,4.111c-0.956,0.201-3.473-2.004-2.636-3.002
			c-0.181,0.217-2.272,2.082-2.313,2.023c-0.455-0.645-0.296-2.66-1.392-2.725c-1.211-0.07-4.83,3.307-5.322,4.332
			c-1.019-0.729-1.761-1.039-2.621-1.971c-0.155-0.17-1.302-1.721-1.505-1.684c-0.654,0.545-1.253,1.367-1.358,2.201
			c-1.078-0.307-1.258-1.311-1.807-2.115c-1.254,1.375-3.087,1.877-4.23,3.344c-1.007-0.477-1.619-1.404-2.381-2.18
			C9.573,44.582,9.305,44.361,9.07,44.238z"/>
	</g>
	<g>
		<path fill="#B7D672" d="M10.857,12.2c1.069,1.068,1.777,2.521,3.017,3.429c1.243,0.91,2.693,1.501,4.136,1.893
			c0.049,0.014-0.539-2.254-0.631-2.52c-0.264-0.758-0.599-1.122-1.325-1.529c-1.393-0.779-3.119-1.13-4.696-1.272"/>
	</g>
	<g>
		<path fill="#B7D672" d="M7.857,19.2c1.138,0.812,2.547,1.438,3.883,1.829c1.445,0.423,3.245,0.049,4.566-0.608
			c-0.485-0.763-2.662-1.376-3.583-1.507C11.154,18.691,9.4,18.856,7.857,19.2z"/>
	</g>
	<g>
		<path fill="#B7D672" d="M12.357,23.866c0.948,0.406,2.772,0.714,3.753,0.298c0.638-0.271,2.467-1.948,1.334-2.528
			c-0.809-0.414-2.033-0.038-2.787,0.339C14.333,22.138,12.329,23.854,12.357,23.866z"/>
	</g>
	<g>
		<path fill="#B7D672" d="M9.354,34.728c-0.251,0.307-0.499,0.604-0.728,0.877c0.564-0.055,1.128-0.455,1.663-0.656
			c1.444-0.543,2.877-0.513,4.293-0.907c1.403-0.393,2.795-1.376,3.709-2.493c0.97-1.186,2.277-2.792,2.642-4.303
			c-2.726,0.24-5.246,0.612-7.436,2.329c-1.358,1.064-2.179,2.658-3.234,4.016C9.977,33.959,9.664,34.35,9.354,34.728z"/>
	</g>
	<g>
		<path fill="#B7D672" d="M16.956,35.178c-1.333,1.256-1.855,3.767-2.342,5.496c0.085-0.301,1.086-0.903,1.344-1.137
			c0.476-0.433,0.937-0.882,1.424-1.302c0.894-0.771,2.52-1.477,2.433-2.897c-0.115-1.869-1.989-0.951-2.815-0.2
			C16.985,35.151,16.97,35.165,16.956,35.178z"/>
	</g>
	<g>
		<path fill="#B7D672" d="M24.916,42.655c0.669-1.592,1.169-3.296,1.226-5.032c0.034-1.027-0.295-1.725-0.616-2.643
			c-0.3-0.858-0.401-1.764-0.669-2.627c-0.207-0.666-0.564-1.339-0.564-2.059c0,0.851-0.308,1.744-0.576,2.546
			c-0.314,0.941-0.702,1.697-0.714,2.673c-0.026,2.082,0.744,3.981,1.107,6.012c0.153,0.854,0.252,1.659,0.007,2.488
			C24.438,43.627,24.704,43.16,24.916,42.655z"/>
	</g>
	<g>
		<path fill="#B7D672" d="M30.204,36.177c-0.103-0.685-0.233-1.357-0.67-1.85c-0.604-0.682-3.029-0.972-3.297-1.728
			c0.298,0.844,0.66,1.366,0.791,2.24c0.274,1.85,2.002,2.538,3.634,3.2C30.373,37.508,30.302,36.836,30.204,36.177z"/>
	</g>
	<g>
		<path fill="#B7D672" d="M19.857,5.866c0.493,0.123-0.002,4.538,0,5.017c0.005,1.002,0.034,1.833,0.576,2.684
			c0.454,0.712,1.349,2.258,2.346,1.478c1.287-1.007,0.538-3.049,0.061-4.279c-0.604-1.557-1.485-3.4-2.483-4.731"/>
	</g>
	<g>
		<path fill="#B7D672" d="M24.691,8.2c0.232,0.465-0.055,1.445-0.075,1.939c-0.028,0.713-0.008,1.42-0.009,2.135
			c0,0.676-0.302,2.221,0.519,2.582c2.277,1.002-0.168-6.268-0.269-6.823"/>
	</g>
	<g>
		<path fill="#B7D672" d="M31.024,14.033c0.789-2.104,1.412-4.343,3.297-5.829c-1.818,0.045-4.204,1.285-5.327,2.686
			c-0.742,0.926-1.243,1.992-1.293,3.193c-0.014,0.316,0.534,3.457,1.067,3.211C30.237,16.615,30.512,15.4,31.024,14.033z"/>
	</g>
	<g>
		<path fill="#B7D672" d="M29.949,18.853c0.039-0.118,2.764-0.614,3.074-0.645c1.237-0.12,3.393-0.024,4.312-1.003
			c-0.872,0.276-2.968-0.854-3.623-0.398c0.748-0.521,1.324-0.473,1.976-1.208c0.854-0.963,0.979-2.31,1.653-3.295
			c-0.418,0.61-1.15,0.922-1.81,1.224C32.885,14.742,30.889,15.999,29.949,18.853z"/>
	</g>
	<g>
		<path fill="#B7D672" d="M38.521,37.908c0.49,0.404,0.936,0.879,1.321,1.452c-0.183-0.646-0.296-1.25-0.414-1.921
			c-0.479-2.712-2.888-7.052-5.72-7.899c-0.669-0.2-2.807-0.14-3.245-0.666c0.572,0.687,0.913,1.535,1.451,2.207
			c0.461,0.577,1.009,1.026,1.348,1.719c-0.098-0.201-0.883-0.197-1.021-0.065c-0.231,0.221,0.011,0.758,0.093,1.027
			c0.275,0.903,0.69,1.541,1.615,1.883C35.603,36.256,37.22,36.834,38.521,37.908z"/>
	</g>
	<g>
		<path fill="#B7D672" d="M38.183,20.843c-1.743,0.839-3.925,1.357-4.897,2.298c0.293-0.283,0.377-1.406,0.669-1.837
			c0.423-0.624,1.029-1.114,1.72-1.413c1.72-0.744,3.814-0.271,5.003-2.191C40.761,19.242,39.621,20.151,38.183,20.843z"/>
	</g>
	<g>
		<path fill="#B7D672" d="M35.164,28.13c1.821,0.314,3.739,0.461,5.203,1.537c-1.261-1.178-1.656-3.093-2.795-4.4
			c-0.97-1.113-2.416-1.297-3.817-1.227c0.074,0.083,1.746,1.789,1.494,1.799c-0.591,0.021-1.103-0.202-1.701-0.117
			c-0.325,0.047-2.128,0.927-2.329,0.725C32.276,27.509,33.688,27.875,35.164,28.13z"/>
	</g>
	<g>
		<path fill="#B7D672" d="M18.534,15.37c0.239,0.118,0.479,2.016,0.71,2.386c0.57,0.91,1.261,1.074,2.268,1.014
			C21.675,17.028,19.84,16.019,18.534,15.37z"/>
	</g>
	<g>
		<path fill="#B7D672" d="M21.125,35.263c0.608-1.52,1.737-3.004,2.152-4.579c0.288-1.091-0.903-2.931-1.975-1.674
			C19.743,30.837,21.884,33.365,21.125,35.263z"/>
	</g>
	<g>
		<path fill="#B7D672" d="M21.874,25.145c0.893,0.059,0.825-0.361,0.895-1.104c0.125-1.317-0.413-2.871-2.041-2.849
			c-0.201,0.002-1.88,0.516-1.823,0.626c0.43,0.832,0.774,1.763,1.395,2.479c0.338,0.39,0.967,0.793,1.49,0.842
			C21.818,25.14,21.847,25.143,21.874,25.145z"/>
	</g>
	<g>
		<path fill="#B7D672" d="M24.606,18.514c0.164,0.549,0.636,1.033,0.976,1.601c-0.255-0.425,1.172-1.701,1.311-2.078
			c0.316-0.863-0.156-2.027-0.367-2.866c-0.318,0.95-1.363,1.425-1.807,2.295C24.52,17.854,24.511,18.194,24.606,18.514z"/>
	</g>
	<g>
		<path fill="#B7D672" d="M26.408,23.164c-0.091,0.722-0.096,1.466-0.154,2.102c0.872,0.011,1.714-0.378,2.601-0.4
			c0.546-0.013,1.09,0.131,1.588-0.167c1.237-0.737,1.605-3.279,1.736-4.574c0.101-0.992-4.25,0.285-4.633,0.585
			C26.8,21.292,26.529,22.209,26.408,23.164z"/>
	</g>
	<g>
		<path fill="#B7D672" d="M28.024,29.2c-0.987-0.396-1.706-1.228-2.66-1.665c0.022,0.011,0.07,2.961,0.468,3.431
			c0.86,1.016,2.396,1.032,3.599,0.976c0.038-0.863-0.964-1.71-1.156-2.576"/>
	</g>
	<g>
		<path fill="#B7D672" d="M8.458,29.874c0.785-0.136,1.56-1.552,1.965-2.146c1.481-2.173,4.135-2.561,6.595-2.262
			c-1.004,0.556-1.507,0.896-2.167,1.756c-0.474,0.617-1.197,1.017-1.888,1.342C11.554,29.228,9.989,29.609,8.458,29.874z"/>
	</g>
</g>
</svg>
