<?xml version="1.0" encoding="utf-8"?>
<!-- Generator: Adobe Illustrator 16.0.0, SVG Export Plug-In . SVG Version: 6.00 Build 0)  -->
<!DOCTYPE svg PUBLIC "-//W3C//DTD SVG 1.1//EN" "http://www.w3.org/Graphics/SVG/1.1/DTD/svg11.dtd">
<svg version="1.1" id="Layer_1" xmlns="http://www.w3.org/2000/svg" xmlns:xlink="http://www.w3.org/1999/xlink" x="0px" y="0px"
	 width="50.102px" height="49.851px" viewBox="0 0 50.102 49.851" enable-background="new 0 0 50.102 49.851" xml:space="preserve">
<g>
	<g>
		<path fill="#856738" d="M23.997,35.604c3.646,0.292,7.285,0.83,10.607,0.836c3.35,0.006,6.945-0.099,9.498,2.454
			c1.625,1.773-0.059,5.243-0.701,7.093c-0.354,1.018-1.438,3.083-2.525,3.513c-1.334,0.525-2.469-0.777-3.777-0.772
			c-0.674,0.003-1.111,0.668-1.74,0.797c-0.832,0.171-1.24-0.544-2.037-0.521c-0.697,0.02-1.328,0.58-2.025,0.683
			c-1.588,0.232-1.861-1.041-3.146-1.116c-0.986-0.058-1.777,1.231-2.865,1.157c-0.817-0.055-1.269-0.938-2.017-0.999
			c-1.999-0.166-1.833,0.667-3.666,1c-1,0.167-2.333-0.666-3.667-0.5c-1.666,0.167-2.833,1.5-3.999-0.332
			c0.388,0.609-2.591,0.123-2.842-0.002c-1.27-0.634-1.795-1.617-2.258-2.947c-0.56-1.606-1.061-3.688-0.705-5.445
			c0.474-2.34,1.976-2.573,3.915-3.31C14.624,35.452,19.132,35.216,23.997,35.604z"/>
	</g>
	<g>
		<path fill="#6BB745" d="M6.236,12.357c-1.29,0.132-2.885-0.536-3.743-1.354c1.215-0.11,3.074-1.669,3.443-2.832
			c0.546-1.718-1.299-2.01-1.635-3.411c1.52-0.558,3.22-0.544,4.801-0.857c0.366-0.073,1.254-0.249,1.414-0.653
			c0.103-0.26-0.311-1.405-0.588-1.344c2.487-0.549,4.271-0.06,6.54,0.931c3.605,1.571,2.886-2.422,1.931-2.363
			c1.626-0.101,2.778,1.158,4.187,1.445c1.562,0.318,2.283-1.1,3.369-1.917c0.114-0.086,2.57,3.137,2.862,3.396
			c1.768,1.563,2.409-0.066,3.893-1.107c0.982-0.688,2.266-1.382,3.508-1.289c0.081,1.42,0.305,2.391,0.791,3.712
			c0.077,0.212,5.141-2.071,5.442-2.365c0.181,1.42-0.012,2.251,1.249,3.138c1.202,0.845,3.606,1.154,4.272,2.595
			c-0.938,0.485-2.301,1.919-2.634,2.933c-0.561,1.707,0.639,1.075,1.756,1.62c-0.197-0.097-1.883,2.921-1.628,3.432
			c0.282,0.564,1.478,1.102,1.955,1.557c0.639,0.608,1.179,1.279,1.555,2.083c-1.316,0.274-4.034,1.6-3.992,3.05
			c0.013,0.412,0.553,0.783,0.541,1.41c-0.011,0.651-0.542,1.318-0.451,1.988c0.107,0.791,0.581,1.216,1.181,1.688
			c1.181,0.931,3.105,1.332,3.847,2.749c-0.597-1.141-4.201,2.017-4.513,2.517c-1.478,2.379-0.025,3.01,1.635,4.596
			c0.047,0.045-2.07,0.8-2.294,0.826c1.025,1.414,2.712,3.587,2.781,5.442c-1.441-0.828-3.529-1.056-5.212-0.969
			c-0.23,0.897,0.271,1.7-0.29,2.667c-0.568-0.968-0.678-1.983-2.035-1.677c-1.239,0.279-1.785,1.812-2.574,2.583
			c-1.008-0.652-1.936-1.354-2.742-2.253c-1.033-1.152-2.125,0.536-3.449,1.051c0.551-2.419-0.977-2.685-2.891-1.842
			c-0.505,0.223-5.146,3.691-4.878,3.942c-0.919-0.859-1.211-2.853-2.277-3.415c-1.142-0.603-2.6,0.778-3.126,1.692
			c-0.492-0.435-0.442-1.114-0.625-1.732c-0.522,1.271-5.083,2.177-4.981,3.455c-0.08-0.908-1.544-3.131-2.396-3.404
			c-0.899-0.289-2.909,0.693-3.128,1.629c-0.052-0.939,0.058-1.88,0.095-2.807c-0.898-0.197-1.988,0.467-2.859,0.742
			c-0.291,0.092-2.696,0.412-2.72,0.449c1.001-1.602,1.226-3.553,2.165-5.182c0.741-1.285,2.345-2.359,0.198-3.032
			c-0.377-0.119-1.737-0.626-2.077-0.38c0.611-0.442,1.183-0.927,1.677-1.504c0.432-0.502,1.484-1.759,1.717-2.278
			c0.332-0.744,0.282-1.011-0.7-1.526C4.025,29.877,0.469,28.598,0,29.207c1.22-1.586,1.995-3.45,3.366-4.933
			c1.602-1.732,1.889-2.244,0.633-4.377c-0.622-1.057-1.683-2.855-3.094-2.908c0.965-0.925,1.938-1.776,3.003-2.579
			c0.471-0.354,0.717-0.419,1.114-0.844c0.284-0.303,0.633-1.496,1.157-1.52c-1.203,0.055-2.879-1.639-3.832-2.28
			c0.529,0.355,2.785-1.228,4.08-1.7"/>
	</g>
	<g>
		<path fill="#B7D672" d="M14.69,13.164c0.763,1.566,2.07,2.339,3.065,3.717c0.298,0.411,0.511,1.036,1.093,1.006
			c0.151-1.529-0.142-3.817-1.241-4.971c-0.905-0.949-2.775-1.751-4.05-1.937C14.135,11.437,14.372,12.511,14.69,13.164z"/>
	</g>
	<g>
		<path fill="#B7D672" d="M10.135,18.143c0.822,0.625,1.41,1.166,2.159,1.849c1.582,1.441,3.539,1.078,5.47,0.676
			c-0.199-1.08-2.276-1.651-3.18-1.979C13.386,18.252,11.421,18.146,10.135,18.143z"/>
	</g>
	<g>
		<path fill="#B7D672" d="M14.346,23.167c0.96,0.506,2.611,1.008,3.702,0.739c0.642-0.158,1.655-0.831,1.261-1.626
			c-0.369-0.742-1.926-0.715-2.55-0.449c-1.072,0.457-2.145,0.449-3.271,0.598C13.637,22.705,13.945,22.956,14.346,23.167z"/>
	</g>
	<g>
		<path fill="#B7D672" d="M10.604,33.526c0.251-0.013,0.479-0.024,0.632-0.049c1.733-0.276,3.523,0.053,5.243-0.334
			c1.497-0.337,2.665-1.252,3.638-2.412c0.482-0.575,0.952-1.258,1.267-1.941c0.096-0.207,0.567-2.401,0.464-2.366
			c-1.886,0.636-4.132,1.034-5.785,2.13c-1.896,1.256-3.631,2.739-5.367,4.203c-0.531,0.449-1.007,0.635-1.594,0.98
			C9.366,33.582,10.046,33.555,10.604,33.526z"/>
	</g>
	<g>
		<path fill="#B7D672" d="M18.305,35.14c-0.566,0.525-1.051,1.123-1.295,1.453c-0.48,0.648-1.192,2.833-2.131,2.898
			c0.874-0.062,1.817-0.546,2.663-0.815c1.347-0.429,4.681-2.334,3.482-4.076C20.354,33.626,19.222,34.288,18.305,35.14z"/>
	</g>
	<g>
		<path fill="#B7D672" d="M25.602,42.197c0.095-0.118,0.181-0.236,0.248-0.357c0.296-0.526,0.688-1.058,0.952-1.603
			c0.62-1.275,1.1-3.259,0.956-4.674c-0.184-1.819-0.992-3.503-1.317-5.294c0.121,1.039-0.348,2.005-0.684,2.964
			c-0.425,1.209-1.391,2.454-1.385,3.778c0.004,0.979,0.094,1.904,0.346,2.848c0.271,1.017,0.68,2.273,0.156,3.279
			C25.04,42.819,25.35,42.512,25.602,42.197z"/>
	</g>
	<g>
		<path fill="#B7D672" d="M31.745,36.214c0.008-0.079,0.01-0.141,0.004-0.179c-0.327-1.9-2.269-3.079-3.663-4.173
			c0.595,1.199,0.463,2.568,0.949,3.797c0.444,1.121,1.455,1.776,2.328,2.546C31.322,38.169,31.688,36.766,31.745,36.214z"/>
	</g>
	<g>
		<path fill="#B7D672" d="M24.19,15.068c1.866-1.462,0.23-6.35-0.975-7.815c-0.394-0.479-0.741-1.042-1.088-1.513
			c-0.067,0.662,0.104,1.311,0.007,2.01c-0.278,1.985-1.529,3.894-0.29,5.841C22.298,14.303,23.194,15.849,24.19,15.068z"/>
	</g>
	<g>
		<path fill="#B7D672" d="M26.537,14.881c1.612,0.71,0.875-4.243,0.679-4.921c-0.183-0.629-0.517-1.291-0.52-1.955
			C26.88,8.458,26.637,9.03,26.53,9.5C26.312,10.464,25.189,14.288,26.537,14.881z"/>
	</g>
	<g>
		<path fill="#B7D672" d="M32.391,14.041c0.106-0.282,0.222-0.562,0.36-0.833c0.712-1.392,1.674-3.417,3.085-4.212
			c-2.104,0.392-4.547,1.326-5.898,3.068c-0.708,0.912-0.898,1.846-0.694,2.964c0.049,0.264,0.449,2.514,0.936,2.29
			C31.61,16.658,31.902,15.333,32.391,14.041z"/>
	</g>
	<g>
		<path fill="#B7D672" d="M31.195,19.066c1.41-0.874,2.722-0.882,4.25-1.163c0.621-0.113,1.306-0.274,1.852-0.585
			c0.569-0.323,1.186-1.159,1.785-1.256c-0.496,0.363-1.54,0.194-2.133,0.152c1.155-0.962,1.232-1.919,2.002-3.078
			c-1.065,1.605-2.938,1.554-4.448,2.361c-1.264,0.677-2.72,1.931-2.975,3.485"/>
	</g>
	<g>
		<path fill="#B7D672" d="M39.401,38.295c0.251,0.485,0.477,0.985,0.917,1.331c-0.149-0.117,0.174-1.676,0.152-1.961
			c-0.05-0.654-0.219-1.306-0.359-1.948c-0.294-1.336-0.601-2.747-1.354-3.911c-0.896-1.385-2.167-1.73-3.584-2.39
			c-0.661-0.308-1.74-0.575-2.309-1.002c0.448,0.337,0.379,0.786,0.474,1.271c0.119,0.609,0.177,0.65,0.518,1.136
			c0.518,0.735,1.075,1.477,1.409,2.321c-0.42-0.172-0.887-0.482-1.313-0.555c0.079,0.014,0.325,1.635,0.408,1.835
			c0.232,0.562,0.594,1.04,1.177,1.276c1.133,0.46,2.151,0.876,3.131,1.618C39.001,37.569,39.21,37.925,39.401,38.295z"/>
	</g>
	<g>
		<path fill="#B7D672" d="M39.745,21.271c-0.093,0.04-0.181,0.077-0.264,0.113c-1.242,0.534-3.993,0.402-4.758,1.753
			c0.994-1.755,1.778-2.779,3.823-3.316c1.232-0.323,3.201,0.021,4.154-0.978C42.542,20.021,40.822,20.808,39.745,21.271z"/>
	</g>
	<g>
		<path fill="#B7D672" d="M36.547,28.215c-1.409-0.314-2.435-1.275-3.813-1.642c1.202,0.318,2.265-1.38,3.571-0.753
			c0.139-0.521-0.958-1.096-1.359-1.458c0.621,0.56,2.116,0.193,2.924,0.67c1.692,0.997,2.726,3.605,2.858,5.498
			C39.514,29.097,38.269,28.6,36.547,28.215z"/>
	</g>
	<g>
		<path fill="#B7D672" d="M20.691,15.275c0.205,1.267,0.239,3.724,1.646,3.521c1.981-0.284-1.554-3.535-1.778-4.059
			C20.614,14.866,20.655,15.053,20.691,15.275z"/>
	</g>
	<g>
		<path fill="#B7D672" d="M22.127,34.201c1.515-0.581,3.026-2.487,2.662-4.092c-0.431-1.896-2.248-0.615-2.434,0.701
			c-0.181,1.277,0.108,2.378-0.555,3.495C21.909,34.278,22.019,34.243,22.127,34.201z"/>
	</g>
	<g>
		<path fill="#B7D672" d="M23.283,25.189c0.891,0.036,1.269-1.304,1.071-2.019c-0.239-0.871-1.476-1.404-2.314-1.479
			c-1.164-0.104-1.671,1.312-2.655,1.293c1.481,0.027,2.104,1.628,3.415,2.102C22.979,25.151,23.139,25.184,23.283,25.189z"/>
	</g>
	<g>
		<path fill="#B7D672" d="M26.048,18.528c0.171,0.614,0.588,1.137,0.92,1.683c-0.045-0.956,1.042-1.397,0.929-2.542
			c-0.05-0.5-0.252-0.968-0.525-1.385c-0.118-0.181-1.006-0.937-1.001-1.05c-0.044,0.983-0.496,1.951-0.39,2.945
			C25.993,18.3,26.016,18.416,26.048,18.528z"/>
	</g>
	<g>
		<path fill="#B7D672" d="M27.493,23.08c-0.204,0.626-0.355,1.276-0.54,1.889c0.107-0.354,1.672-0.363,1.955-0.38
			c1.637-0.096,2.87-0.305,3.941-1.671c0.72-0.916,1.007-2.122,1.651-3.113c-0.799,1.188-2.711,0.499-3.875,0.615
			C28.914,20.59,28.015,21.478,27.493,23.08z"/>
	</g>
	<g>
		<path fill="#B7D672" d="M29.194,28.483c-0.638-0.339-1.228-0.8-1.824-1.156c0.362,1.083-0.354,2.55,0.304,3.52
			c0.662,0.979,2.099,0.755,3.004,1.295c-0.128-0.076-0.198-1.259-0.301-1.491c-0.193-0.443-0.579-0.753-0.692-1.261"/>
	</g>
	<g>
		<path fill="#B7D672" d="M9.879,28.566c-0.011,0-0.021,0-0.032,0c0.771-0.318,1.667-1.545,2.513-2.106
			c1.755-1.165,4.277-0.659,6.269-0.479c-1.751,0.142-2.248,1.714-3.728,2.38C13.337,29.066,11.519,28.573,9.879,28.566z"/>
	</g>
</g>
</svg>
