<?xml version="1.0" encoding="utf-8"?>
<!-- Generator: Adobe Illustrator 16.0.0, SVG Export Plug-In . SVG Version: 6.00 Build 0)  -->
<!DOCTYPE svg PUBLIC "-//W3C//DTD SVG 1.1//EN" "http://www.w3.org/Graphics/SVG/1.1/DTD/svg11.dtd">
<svg version="1.1" id="Layer_1" xmlns="http://www.w3.org/2000/svg" xmlns:xlink="http://www.w3.org/1999/xlink" x="0px" y="0px"
	 width="49.978px" height="49.78px" viewBox="0 0 49.978 49.78" enable-background="new 0 0 49.978 49.78" xml:space="preserve">
<g>
	<g>
		<path fill="#856738" d="M24.134,35.533c3.646,0.292,7.285,0.83,10.607,0.836c3.35,0.006,6.945-0.099,9.498,2.454
			c1.625,1.773-0.059,5.243-0.701,7.093c-0.354,1.018-1.438,3.083-2.525,3.513c-1.334,0.525-2.469-0.777-3.777-0.772
			c-0.674,0.003-1.111,0.668-1.74,0.797c-0.832,0.171-1.24-0.544-2.037-0.521c-0.697,0.02-1.328,0.58-2.025,0.683
			c-1.588,0.232-1.861-1.041-3.146-1.116c-0.986-0.058-1.777,1.231-2.865,1.157c-0.817-0.055-1.269-0.938-2.017-0.999
			c-1.999-0.166-1.833,0.667-3.666,1c-1,0.167-2.333-0.666-3.667-0.5c-1.666,0.167-2.833,1.5-3.999-0.332
			c0.388,0.609-2.591,0.123-2.842-0.002c-1.27-0.634-1.795-1.617-2.258-2.947c-0.56-1.606-1.061-3.688-0.705-5.445
			c0.474-2.34,1.976-2.573,3.915-3.31C14.761,35.382,19.269,35.146,24.134,35.533z"/>
	</g>
	<g>
		<path fill="#6BB745" d="M6.373,12.287c-1.29,0.132-2.885-0.536-3.743-1.354c1.401-0.127,2.949-1.425,3.409-2.741
			c0.59-1.69-0.79-2.167-2.171-2.326C4.637,5.659,5.33,5.27,6.078,5.009C7.075,4.661,8.041,4.298,9.063,4.03
			c0.664-0.174,1.591-0.422,1.934-1.076c0.331-0.631,0.571-1.843-0.122-2.354c0.797-0.15,1.761,0.345,2.451,0.689
			c0.857,0.428,1.704,0.844,2.586,1.24c0.871,0.393,2.147,1.024,3.017,0.308c1.118-0.923-0.792-1.325-1.399-1.706
			c1.424-0.611,3.053,0.135,4.432,0.523c0.593,0.168,1.264,0.388,1.864,0.168c1.23-0.45,2.122-1.659,3.476-1.822
			c0.086,1.562-0.09,2.192,1.271,3.112c0.567,0.384,1.357,1.092,2.109,0.79c0.513-0.206,1.125-0.943,1.572-1.3
			c0.452-0.361,0.823-0.843,1.261-1.233c0.527-0.47,1.004-0.847,1.726-0.866c0.066,0.605,0.358,1.324,0.634,1.865
			c0.182,0.357,0.372,0.867,0.609,1.178c0.553,0.724,1.01,0.945,1.853,0.7c1.09-0.316,2.182-0.515,3.288-0.767
			c0.553-0.126,1.438-0.199,1.803-0.709c-0.182,0.255-0.266,1.283-0.247,1.604c0.089,1.545,2.57,1.394,3.63,1.759
			c0.517,0.178,1.094,0.325,1.433,0.734c-0.05-0.061-1.216,0.991-1.314,1.104c-0.454,0.518-0.768,1.162-1.047,1.787
			c-0.151,0.336-0.677,1.268-0.59,1.63c0.173,0.719,1.297,0.152,1.78,0.057c-0.31,0.868-0.791,1.639-1.025,2.527
			c-0.132,0.495-0.691,1.517-0.441,2.021c0.244,0.491,0.891,0.545,1.351,0.773c0.532,0.264,1.068,0.572,1.545,0.929
			c0.371,0.277,0.603,0.711,0.936,0.966c-0.188-0.145-1.617,0.933-1.811,1.081c-0.523,0.4-0.881,0.864-1.317,1.333
			c-0.703,0.754-2.022,1.826-0.251,2.302c-0.4,0.695-0.958,1.872-0.845,2.704c0.133,0.98,1.053,1.931,1.963,2.243
			c0.893,0.306,2.108,0.251,2.804,0.979c-0.269-0.281-1.696,1.487-1.903,1.768c-0.756,1.02-4.009,2.735-2.784,4.356
			c0.253,0.334,0.714,0.383,1.074,0.529c0.181,0.073,1.041,0.724,1.129,0.713c-0.674,0.084-2.274,0.871-2.312,1.676
			c-0.035,0.759,1.441,1.59,1.857,2.176c0.52,0.731,0.957,1.631,1.151,2.511c-0.873-0.312-1.807-0.238-2.716-0.225
			c-0.56,0.008-1.465-0.227-1.981,0.041c-0.62,0.32-0.727,1.929-0.319,2.456c-0.463-0.576-1.135-1.125-1.846-1.352
			c-0.556-0.178-1.003-0.087-1.135-0.81c-0.018,1.479-2.099,1.857-1.911,3.465c-1.034-0.967-2.249-1.7-3.479-2.385
			c-0.793-0.441-1.017-0.15-1.826,0.185c-0.192,0.079-2.036,0.561-2.018,0.687c-0.112-0.758,0.33-1.824-0.781-2.002
			c-0.964-0.153-1.792,0.816-2.521,1.279c-0.773,0.49-1.59,0.924-2.458,1.221c-0.472,0.161-2.652,0.766-2.322,1.568
			c-0.252-0.611-0.545-1.208-0.748-1.839c-0.121-0.379-0.155-0.908-0.447-1.211c-0.734-0.763-1.68,0.071-2.336,0.494
			c-0.334,0.215-2.164,0.665-2.083,1.243c-0.094-0.67,0.156-1.407,0.607-1.9c-0.945,1.154-2.19,1.396-3.587,1.627
			c-0.846,0.141-2.469,0.496-2.528,1.587c-0.522-0.95-0.548-2.929-1.767-3.247c-1.062-0.277-2.959,0.459-3.616,1.308
			c0.017-0.928,0.249-1.919,0.795-2.679c-0.559,0.502-1.682,0.597-2.405,0.501c-1.172-0.154-2.351-0.495-3.559-0.502
			c0.561-0.438,0.954-1.27,1.36-1.849c0.625-0.889,1.206-1.783,1.87-2.643c0.547-0.708,0.763-1.37,0.235-2.201
			c-0.172-0.271-2.198-1.868-2.414-1.625c0.791-0.894,3.868-2.154,3.064-3.635c-0.679-1.251-2.408-1.75-3.504-2.535
			C1.252,27.653,0.51,27.411,0,27.004c0.646,0.068,1.427-1.143,1.807-1.576c0.682-0.778,1.304-1.644,2.121-2.289
			c0.848-0.669,1.202-1.189,0.723-2.335c-0.287-0.686-0.568-1.45-0.916-2.094c-0.377-0.698-1.025-1.209-1.424-1.892
			c-0.365-0.627-0.802-1.32-1.261-1.701c1.562,0.354,3.081-0.521,4.109-1.621c0.964-1.027,0.099-1.253-0.82-1.567
			c-0.991-0.339-1.329-0.798-1.902-1.681c0.197,0.305,1.517,0.311,1.837,0.219C3.801,9.833,3.112,9.376,2.69,8.69
			c1.307-0.032,2.682-0.259,3.874-0.694"/>
	</g>
	<g>
		<path fill="#B7D672" d="M15.805,12.951c0.006,0.038,0.012,0.073,0.019,0.103c0.218,0.984,0.456,1.981,1.178,2.69
			c0.736,0.723,1.544,1.407,1.858,2.434c0.043-0.601,0.302-1.136,0.32-1.739c0.076-2.485-1.762-5.59-4.097-6.578
			C15.729,10.134,15.697,12.231,15.805,12.951z"/>
	</g>
	<g>
		<path fill="#B7D672" d="M11.523,16.62c0.359,0.548,0.732,1.116,0.99,1.699c0.28,0.637,0.495,0.95,1.05,1.364
			c0.313,0.234,0.587,0.579,0.933,0.747c0.579,0.281,1.028,0.203,1.594,0.237c0.729,0.044,1.979,0.819,1.742-0.385
			c-0.184-0.934-0.756-1.414-1.633-1.741c-0.938-0.349-1.763-0.698-2.714-0.948c-0.659-0.174-1.859-0.807-2.236-1.396
			C11.338,16.337,11.431,16.478,11.523,16.62z"/>
	</g>
	<g>
		<path fill="#B7D672" d="M14.835,22.624c0.779,0.554,1.645,0.909,2.676,0.936c0.584,0.015,1.144-0.137,1.611-0.486
			c0.276-0.205,0.861-1.177,1.124-1.197c-1.156,0.09-2.252-0.581-3.393-0.265c-0.965,0.268-2.146,1.022-3.038,0.146
			C14.143,22.079,14.479,22.372,14.835,22.624z"/>
	</g>
	<g>
		<path fill="#B7D672" d="M11.085,32.172c1.297,0.458,2.707,0.648,4.08,0.589c1.707-0.074,3.489-0.834,4.682-2.067
			c1.084-1.122,1.541-3.283,1.531-4.812c-0.261,0.354-0.514,0.683-0.887,0.938c-0.704,0.482-1.628,0.6-2.428,0.839
			c-0.975,0.292-1.934,0.797-2.751,1.399c-1.361,1.003-2.68,2.039-4.426,2.182c-0.521,0.043-1.03,0.073-1.557,0.062
			C9.889,31.672,10.477,31.957,11.085,32.172z"/>
	</g>
	<g>
		<path fill="#B7D672" d="M18.415,35.086c-0.19,0.097-0.375,0.212-0.549,0.355c-0.618,0.509-1.041,1.171-1.796,1.504
			c-0.396,0.175-1.392,0.55-1.801,0.29c1.014,0.645,2.404,0.535,3.55,0.571c1.05,0.033,2.098-0.521,2.938-1.102
			c0.854-0.59,0.991-1.577,0.915-2.589C20.646,34.622,19.43,34.574,18.415,35.086z"/>
	</g>
	<g>
		<path fill="#B7D672" d="M25.26,41.719c0.989-1.151,1.898-2.457,2.32-3.933c0.455-1.588,0.153-3.009,0.071-4.619
			c-0.05-0.975-0.574-1.86-0.592-2.85c0.005,0.831-0.084,1.273-0.483,2.001c-0.408,0.742-0.806,1.487-1.307,2.172
			c-0.629,0.861-0.845,2.026-0.96,3.063c-0.11,0.999,0.188,1.831,0.188,2.815c0,0.812,0.012,1.659-0.183,2.438
			C24.64,42.476,24.943,42.087,25.26,41.719z"/>
	</g>
	<g>
		<path fill="#B7D672" d="M31.337,36.167c-0.003-0.139-0.012-0.275-0.025-0.409c-0.168-1.64-1.165-2.859-2.486-3.75
			c0.651,1.184-0.069,2.734,0.508,3.935c0.29,0.604,0.757,1.102,1.089,1.679c0.214,0.372,0.406,0.726,0.753,0.977
			C31.23,37.825,31.358,36.968,31.337,36.167z"/>
	</g>
	<g>
		<path fill="#B7D672" d="M24.327,14.998c0.928-0.727,0.846-1.957,0.92-3.015c0.094-1.331-0.441-2.74-0.941-3.963
			c-0.276-0.676-1.18-1.862-1.184-2.572c0.005,0.91-0.149,1.482-0.452,2.34c-0.51,1.444-1.168,3.049-0.977,4.648
			C21.805,13.363,23.024,16.019,24.327,14.998z"/>
	</g>
	<g>
		<path fill="#B7D672" d="M26.674,14.811c1.551,0.683,1.089-5.891,0.556-6.751c-0.141,0.479-0.137,1.05-0.308,1.571
			C26.565,10.712,25.052,14.096,26.674,14.811z"/>
	</g>
	<g>
		<path fill="#B7D672" d="M32.501,13.982c0.059-0.193,0.114-0.384,0.169-0.57c0.475-1.599,1.383-2.884,2.997-3.53
			c-1.026-0.078-2.036,0.077-2.983,0.49c-0.773,0.337-1.7,0.786-2.295,1.384c-0.982,0.986-1.206,2.152-0.962,3.452
			c0.053,0.279,0.401,2.264,0.889,2.04C31.611,16.653,32.113,15.272,32.501,13.982z"/>
	</g>
	<g>
		<path fill="#B7D672" d="M31.332,18.996c0.697-0.433,1.151-0.966,2.003-1.023c0.83-0.057,1.699,0.197,2.52,0.021
			c1.096-0.236,2.005-0.482,2.87-1.178c-0.457,0.436-1.607,0.171-2.208,0.181c1.143-0.628,2.155-1.743,2.299-3.11
			c-0.681,1.056-1.589,1.353-2.758,1.717c-1.525,0.477-4.005,1.67-4.622,3.266"/>
	</g>
	<g>
		<path fill="#B7D672" d="M39.773,38.269c0.29-1.559,0.149-3.638-0.481-5.107c-0.622-1.451-1.483-2.83-2.843-3.693
			c-0.894-0.567-1.941-0.81-2.729-1.551c0.668,0.69,0.65,1.713,0.748,2.606c0.052,0.48,0.09,0.984,0.281,1.435
			c0.157,0.369,0.52,0.641,0.592,1.029c-0.166-0.099-1.057-0.607-1.021-0.851c-0.256,1.702,1.365,2.858,2.474,3.795
			c0.741,0.627,2.917,2.737,2.655,3.864C39.568,39.283,39.68,38.773,39.773,38.269z"/>
	</g>
	<g>
		<path fill="#B7D672" d="M39.993,21.671c-0.557,0.142-1.133,0.242-1.728,0.322c-1.146,0.153-2.065,0.746-3.25,0.69
			c0.668-0.315,1.133-1.105,1.696-1.576c0.708-0.593,1.448-1.022,2.393-1.082c1.143-0.072,3.246,0.562,4.251-0.09
			C42.347,20.851,41.219,21.359,39.993,21.671z"/>
	</g>
	<g>
		<path fill="#B7D672" d="M37.66,24.158c-0.686-0.314-1.59-0.479-2.031-0.969c0.253,0.28,0.368,0.661,0.569,0.991
			c0.195,0.32,1.271,1.228,0.498,1.577c-0.298,0.136-1.144-0.062-1.49-0.034c-0.308,0.025-1.547,0.446-1.756,0.332
			c0.906,0.497,1.647,1.325,2.649,1.613c1.907,0.549,2.922,1.735,4.243,3.111c-0.388-0.527-0.408-1.312-0.486-1.94
			c-0.2-1.598-0.347-3.368-1.757-4.429C37.971,24.314,37.821,24.232,37.66,24.158z"/>
	</g>
	<g>
		<path fill="#B7D672" d="M21.426,15.065c0.126,0.525-0.023,1.119-0.047,1.642c-0.055,1.155,0.54,2.474,1.734,2.889
			c0.112-2.076-0.825-3.23-1.842-4.911C21.345,14.806,21.394,14.934,21.426,15.065z"/>
	</g>
	<g>
		<path fill="#B7D672" d="M22.216,33.423c0.832-0.057,1.59-0.369,2.267-1.055c0.959-0.972,0.952-2.168,0.817-3.426
			c-1.125,0.186-2.304,0.822-2.979,1.754c-0.391,0.539-0.668,2.825-1.806,2.547C21.11,33.389,21.679,33.46,22.216,33.423z"/>
	</g>
	<g>
		<path fill="#B7D672" d="M23.423,25.134c0.566,0.106,1.021-0.162,1.565-0.275c0.504-0.104-0.628-1.966-0.761-2.169
			c-0.748-1.143-1.922-0.574-2.999-0.071c-0.489,0.229-0.988,0.877-1.525,0.874c0.675,0.003,1.485,0.206,2.061,0.563
			c0.516,0.32,0.938,0.888,1.549,1.053C23.35,25.118,23.387,25.127,23.423,25.134z"/>
	</g>
	<g>
		<path fill="#B7D672" d="M25.713,18.523c0.126,0.297,0.302,0.571,0.521,0.791c1.31,1.318,1.379-0.429,1.16-1.368
			c-0.265-1.139-1.203-2.096-2.027-2.87c0.334,0.84,0.157,1.457,0.132,2.341C25.487,17.784,25.564,18.17,25.713,18.523z"/>
	</g>
	<g>
		<path fill="#B7D672" d="M27.302,22.876c-0.171,0.392-0.373,0.751-0.69,0.867c1.497-0.045,2.959,0.823,4.392,0.344
			c1.082-0.362,2.133-1.117,2.812-2.032c0.362-0.488,0.646-0.924,1.165-1.26c-0.659,0.291-1.676-0.063-2.341-0.226
			c-0.895-0.219-2.005-0.3-2.907-0.105c-0.771,0.166-1.452,0.744-1.927,1.35C27.612,22.06,27.473,22.484,27.302,22.876z"/>
	</g>
	<g>
		<path fill="#B7D672" d="M28.304,26.578c0.323,0.408,0.08,1.269,0.024,1.728c-0.113,0.917-0.363,1.859,0.293,2.594
			c0.646,0.722,1.764,0.973,2.302,1.78c0.011-0.604,0.191-1.2,0.204-1.808C31.173,28.791,29.448,27.966,28.304,26.578z"/>
	</g>
	<g>
		<path fill="#B7D672" d="M10.598,27.396c-0.597-0.413-1.12-0.777-1.397-0.782c1.665,0.03,3.15-0.477,4.766-0.742
			c1.549-0.255,3.251-0.328,4.68,0.432c-0.626-0.061-1.924,1.252-2.457,1.629c-0.812,0.572-1.737,0.693-2.666,0.377
			C12.982,29.047,11.672,28.142,10.598,27.396z"/>
	</g>
</g>
</svg>
